HIERARCHY
ROOT hip
{
  OFFSET 0 0 0
  CHANNELS 6 Xposition Yposition Zposition Zrotation Yrotation Xrotation
  JOINT abdomen
  {
    OFFSET 0 20.6881 -0.73152
    CHANNELS 3 Zrotation Xrotation Yrotation
    JOINT chest
    {
      OFFSET 0 11.7043 -0.48768
      CHANNELS 3 Zrotation Xrotation Yrotation
      JOINT neck
      {
        OFFSET 0 22.1894 -2.19456
        CHANNELS 3 Zrotation Xrotation Yrotation
        JOINT head
        {
          OFFSET -0.24384 7.07133 1.2192
          CHANNELS 3 Zrotation Xrotation Yrotation
          JOINT leftEye
          {
            OFFSET 4.14528 8.04674 8.04672
            CHANNELS 3 Zrotation Xrotation Yrotation
            End Site
            {
              OFFSET 1 0 0
            }
          }
          JOINT rightEye
          {
            OFFSET -3.6576 8.04674 8.04672
            CHANNELS 3 Zrotation Xrotation Yrotation
            End Site
            {
              OFFSET 1 0 0
            }
          }
        }
      }
      JOINT rCollar
      {
        OFFSET -2.68224 19.2634 -4.8768
        CHANNELS 3 Zrotation Xrotation Yrotation
        JOINT rShldr
        {
          OFFSET -8.77824 -1.95073 1.46304
          CHANNELS 3 Zrotation Xrotation Yrotation
          JOINT rForeArm
          {
            OFFSET -28.1742 -1.7115 0.48768
            CHANNELS 3 Zrotation Xrotation Yrotation
            JOINT rHand
            {
              OFFSET -22.5879 0.773209 7.07136
              CHANNELS 3 Zrotation Xrotation Yrotation
              JOINT rThumb1
              {
                OFFSET -1.2192 -0.487915 3.41376
                CHANNELS 3 Zrotation Xrotation Yrotation
                JOINT rThumb2
                {
                  OFFSET -3.37035 -0.52449 3.41376
                  CHANNELS 3 Zrotation Xrotation Yrotation
                  End Site
                  {
                    OFFSET -1.78271 -1.18214 1.43049
                  }
                }
              }
              JOINT rIndex1
              {
                OFFSET -7.75947 0.938293 5.60832
                CHANNELS 3 Zrotation Xrotation Yrotation
                JOINT rIndex2
                {
                  OFFSET -2.54057 -0.884171 1.56538
                  CHANNELS 3 Zrotation Xrotation Yrotation
                  End Site
                  {
                    OFFSET -1.62519 -0.234802 1.16502
                  }
                }
              }
              JOINT rMid1
              {
                OFFSET -8.24714 1.18213 3.41376
                CHANNELS 3 Zrotation Xrotation Yrotation
                JOINT rMid2
                {
                  OFFSET -3.10165 -0.590103 1.0647
                  CHANNELS 3 Zrotation Xrotation Yrotation
                  End Site
                  {
                    OFFSET -2.48547 -0.328903 0.83742
                  }
                }
              }
              JOINT rRing1
              {
                OFFSET -8.82822 0.546677 1.51678
                CHANNELS 3 Zrotation Xrotation Yrotation
                JOINT rRing2
                {
                  OFFSET -2.60934 -0.819778 -0.0198488
                  CHANNELS 3 Zrotation Xrotation Yrotation
                  End Site
                  {
                    OFFSET -2.33842 -0.294052 0.168128
                  }
                }
              }
              JOINT rPinky1
              {
                OFFSET -8.27202 -0.0477905 -0.4584
                CHANNELS 3 Zrotation Xrotation Yrotation
                JOINT rPinky2
                {
                  OFFSET -1.82734 -0.647385 -0.700984
                  CHANNELS 3 Zrotation Xrotation Yrotation
                  End Site
                  {
                    OFFSET -1.69225 -0.51767 -0.607171
                  }
                }
              }
            }
          }
        }
      }
      JOINT lCollar
      {
        OFFSET 2.68224 19.2634 -4.8768
        CHANNELS 3 Zrotation Xrotation Yrotation
        JOINT lShldr
        {
          OFFSET 8.77824 -1.95073 1.46304
          CHANNELS 3 Zrotation Xrotation Yrotation
          JOINT lForeArm
          {
            OFFSET 28.1742 -1.7115 0.48768
            CHANNELS 3 Zrotation Xrotation Yrotation
            JOINT lHand
            {
              OFFSET 22.5879 0.773209 7.07136
              CHANNELS 3 Zrotation Xrotation Yrotation
              JOINT lThumb1
              {
                OFFSET 1.2192 -0.487915 3.41376
                CHANNELS 3 Zrotation Xrotation Yrotation
                JOINT lThumb2
                {
                  OFFSET 3.37035 -0.52449 3.41376
                  CHANNELS 3 Zrotation Xrotation Yrotation
                  End Site
                  {
                    OFFSET 1.78271 -1.18214 1.43049
                  }
                }
              }
              JOINT lIndex1
              {
                OFFSET 7.75947 0.938293 5.60832
                CHANNELS 3 Zrotation Xrotation Yrotation
                JOINT lIndex2
                {
                  OFFSET 2.54057 -0.884171 1.56538
                  CHANNELS 3 Zrotation Xrotation Yrotation
                  End Site
                  {
                    OFFSET 1.62519 -0.234802 1.16502
                  }
                }
              }
              JOINT lMid1
              {
                OFFSET 8.24714 1.18213 3.41376
                CHANNELS 3 Zrotation Xrotation Yrotation
                JOINT lMid2
                {
                  OFFSET 3.10165 -0.590103 1.0647
                  CHANNELS 3 Zrotation Xrotation Yrotation
                  End Site
                  {
                    OFFSET 2.48547 -0.328903 0.83742
                  }
                }
              }
              JOINT lRing1
              {
                OFFSET 8.82822 0.546677 1.51678
                CHANNELS 3 Zrotation Xrotation Yrotation
                JOINT lRing2
                {
                  OFFSET 2.60934 -0.819778 -0.0198488
                  CHANNELS 3 Zrotation Xrotation Yrotation
                  End Site
                  {
                    OFFSET 2.33842 -0.294052 0.168128
                  }
                }
              }
              JOINT lPinky1
              {
                OFFSET 8.27202 -0.0477905 -0.4584
                CHANNELS 3 Zrotation Xrotation Yrotation
                JOINT lPinky2
                {
                  OFFSET 1.82734 -0.647385 -0.700984
                  CHANNELS 3 Zrotation Xrotation Yrotation
                  End Site
                  {
                    OFFSET 1.69225 -0.51767 -0.607171
                  }
                }
              }
            }
          }
        }
      }
    }
  }
  JOINT rButtock
  {
    OFFSET -8.77824 4.35084 1.2192
    CHANNELS 3 Zrotation Xrotation Yrotation
    JOINT rThigh
    {
      OFFSET 0 -1.70687 -2.19456
      CHANNELS 3 Zrotation Xrotation Yrotation
      JOINT rShin
      {
        OFFSET 0 -36.8199 0.73152
        CHANNELS 3 Zrotation Xrotation Yrotation
        JOINT rFoot
        {
          OFFSET 0.73152 -45.1104 -5.12064
          CHANNELS 3 Zrotation Xrotation Yrotation
          End Site
          {
            OFFSET -1.1221 -3.69964 12.103
          }
        }
      }
    }
  }
  JOINT lButtock
  {
    OFFSET 8.77824 4.35084 1.2192
    CHANNELS 3 Zrotation Xrotation Yrotation
    JOINT lThigh
    {
      OFFSET 0 -1.70687 -2.19456
      CHANNELS 3 Zrotation Xrotation Yrotation
      JOINT lShin
      {
        OFFSET 0 -36.8199 0.73152
        CHANNELS 3 Zrotation Xrotation Yrotation
        JOINT lFoot
        {
          OFFSET -0.73152 -45.1104 -5.12064
          CHANNELS 3 Zrotation Xrotation Yrotation
          End Site
          {
            OFFSET 1.1221 -3.69964 12.103
          }
        }
      }
    }
  }
}
MOTION
Frames:	4
Frame Time:	0.03333
0.027565421536564827 -0.08128263056278229 0.005593034438788891 -9.782460182905197 -4.943866766989231 -8.174537569284439 3.233294002711773 2.9483481869101524 3.190830610692501 -2.571628913283348 -4.348545782268047 2.6681602746248245 0.3803107514977455 3.0472100526094437 -1.3206536695361137 8.525336980819702 -8.100562244653702 -4.2219676449894905 1.5390924364328384 4.045497067272663 -0.6523152440786362 -0.4966787248849869 3.2693153992295265 2.5670242309570312 -3.5707199200987816 -3.807865083217621 1.3456069305539131 20.066300332546234 15.010218322277069 -1.4139526337385178 -15.49769639968872 -12.897351086139679 30.67057192325592 1.793198548257351 -0.7151362672448158 -1.5655772387981415 0.7071434520184994 -2.115027755498886 4.906514994800091 2.916242480278015 1.2841507326811552 -1.8473898991942406 0.7371850311756134 1.9356323964893818 3.2809407636523247 1.898738443851471 -1.1444724351167679 0.6557650677859783 -0.5656077247112989 -1.054568812251091 3.2956214994192123 0.8874851278960705 3.9669210836291313 -2.552301250398159 -5.15201959758997 4.0789418667554855 -3.0308331549167633 2.7917997166514397 0.8562739379703999 -1.9374405406415462 -4.313720986247063 0.6860383227467537 -0.1828861702233553 0.16376394778490067 -1.9686012715101242 -4.575769789516926 -2.0354008488357067 3.0528440326452255 1.159721463918686 -25.21710991859436 10.356154516339302 -15.973525643348694 10.743159055709839 -4.527365304529667 -28.76423478126526 -1.7935334891080856 -9.156195893883705 -0.2732088044285774 -2.8559450805187225 -1.120556853711605 0.23924918845295906 2.4378282576799393 -4.255867078900337 -3.032216504216194 -3.068639226257801 3.0553244054317474 1.419023685157299 -7.698124945163727 0.7417193055152893 -0.2718179952353239 -4.01960302144289 1.8492944352328777 -2.1500584110617638 -1.9889815337955952 -0.6169469654560089 -2.6898375526070595 -2.7403033152222633 1.961655355989933 0.06546635180711746 -10.031966641545296 3.2943907007575035 -3.2476216927170753 -3.09754841029644 0.44480031821876764 1.850021816790104 -5.122765079140663 2.1493231505155563 0.7235404662787914 1.2963448092341423 0.6688122963532805 -3.4075990319252014 -15.412175506353378 -11.72327309846878 -9.095542430877686 -3.894069939851761 30.68307101726532 14.872156977653503 -4.592262357473373 -9.874357357621193 -3.959859162569046 -3.3217529207468033 -4.8213887214660645 1.9977552071213722 16.755758374929428 -18.448894768953323 12.523322403430939 14.297228157520294 23.345888257026672 -0.5569828301668167 6.3828373700380325 -7.691253796219826 4.309114962816238
0.048697253689169884 -0.16782653331756592 0.03323908429592848 -10.779295787215233 -3.0663006752729416 -5.957729369401932 0.9638823196291924 7.616851329803467 3.595968894660473 -0.17668649554252625 -6.7425839602947235 1.6360435634851456 -2.4755803495645523 9.314504563808441 -2.5231541879475117 9.057274013757706 -15.547859072685242 -4.562012068927288 1.0447170585393906 2.358548194169998 -0.10717889294028282 -0.8057795092463493 1.2371313571929932 1.8907176330685616 -1.4342891424894333 -2.368173971772194 0.5944028310477734 31.00568175315857 22.579725980758667 3.418280929327011 -19.29926097393036 -20.943567752838135 44.27631318569183 -1.5541630983352661 -5.779038593173027 -3.8771720230579376 0.7472545467317104 -1.5985429286956787 1.9731637090444565 1.4271735772490501 0.9960801433771849 -0.9150954522192478 0.0882500410079956 0.5338169261813164 0.29172442853450775 4.689571559429169 2.7824780344963074 0.2197875827550888 -0.14180109836161137 -0.8838189672678709 1.6906402632594109 2.1829302236437798 2.4429506063461304 -1.0630010068416595 -2.799595221877098 2.307853102684021 -1.921573430299759 6.637198626995087 0.5586432851850986 -0.939040370285511 -2.533176764845848 0.3711179830133915 0.3296768059954047 1.390516497194767 -0.9888976067304611 -2.3254014551639557 -0.7839355990290642 0.8993255719542503 0.777961565181613 -36.700336039066315 17.88467600941658 -21.268829852342606 16.309517920017242 -12.605636715888977 -41.66207134723663 0.4456671327352524 -10.276803374290466 1.6237318888306618 -1.3744054734706879 -0.6648203730583191 0.3571155946701765 0.850241482257843 -1.8615710735321045 -0.6398409605026245 -0.7876963913440704 1.5884420648217201 0.6000584363937378 -8.092364743351936 3.488963171839714 0.5451919231563807 -2.035234719514847 0.7729955390095711 -0.3821839392185211 -2.9124129563570023 0.8389658108353615 -1.2358945235610008 -1.085294857621193 0.10118365287780762 -0.6177336070686579 -10.25684840977192 2.036910764873028 -1.769779846072197 -0.9938003495335579 0.5314933368936181 0.9835100546479225 -3.6413689702749252 0.1439477875828743 0.3202209295704961 0.7924813684076071 0.4260746017098427 -1.1714346706867218 -21.881565749645233 -19.219564497470856 -16.114592403173447 -9.76607121527195 43.60193610191345 17.190481424331665 -4.428576864302158 -10.854844897985458 -6.36705256998539 -0.9228609502315521 -2.4390989542007446 0.20449597388505936 25.74144423007965 -23.45594733953476 21.481573283672333 17.826569974422455 37.09189295768738 -7.991227358579636 5.249253697693348 -9.016838371753693 9.347929581999779
0.015208905562758446 -0.33481812477111816 -0.11756524164229631 -25.434768497943878 -4.254321455955505 4.499851539731026 -1.0525410622358322 12.761375159025192 4.047270677983761 2.3242943733930588 -9.361192435026169 1.5818414837121964 -4.034690111875534 13.435500115156174 -3.0611052364110947 8.415599763393402 -21.89064234495163 -4.634055867791176 0.8311459980905056 0.6942294538021088 -0.13430273160338402 -1.1715516820549965 0.09947709739208221 0.40498171001672745 0.05687423050403595 -0.5345562100410461 0.3092724457383156 45.03563046455383 29.99891996383667 8.338596224784851 -22.76792049407959 -28.803397715091705 61.113300919532776 -6.626051366329193 -13.307927548885345 -7.936981022357941 1.399327302351594 -0.5252762697637081 -0.43667905032634735 -0.4074322432279587 -0.3802959155291319 -1.225995160639286 -0.5878812074661255 -0.2709929645061493 -1.071808710694313 7.112913876771927 5.966284945607185 0.26400203816592693 -0.5198427010327578 -0.6622887030243874 0.919690914452076 3.613034449517727 0.8236011117696762 -0.36299776285886765 -0.7608253508806229 0.6032911688089371 -0.9020315855741501 10.546818673610687 -0.11812557466328144 -0.5019325017929077 -0.13874799013137817 0.7286321371793747 0.8759192749857903 1.3859842345118523 -1.0219504684209824 -1.2421752512454987 -0.44664982706308365 -0.30086807906627655 -0.42990513145923615 -50.586193799972534 25.698861479759216 -24.69854235649109 21.189032793045044 -22.19093307852745 -55.70473909378052 3.478461652994156 -11.17495782673359 3.491518311202526 -0.6560381501913071 0.6929398141801357 -0.08894942700862885 -0.13556823134422302 -1.0082940012216568 0.7307953387498856 -0.0767882913351059 0.4568968713283539 0.032515749335289 -7.317996919155121 5.04410594701767 1.3188422564417124 -0.32258525490760803 1.0941022261977196 0.39418481290340424 -3.2565531134605408 1.020873561501503 0.5843085050582886 0.2219199389219284 -1.2261741980910301 -1.1427587550133467 -10.6186643242836 0.8854434639215469 -0.2160036563873291 0.24398379027843475 0.1625376334413886 -0.25854114443063736 -2.747844010591507 -2.042483054101467 -0.6603855499997735 0.2730615343898535 -0.20340632647275925 -0.22844240069389343 -28.17192256450653 -28.39241087436676 -22.88202166557312 -16.30360633134842 55.77404737472534 18.56468975543976 -4.84840527176857 -12.481588572263718 -7.1310905367136 0.6261509656906128 -0.8055753260850906 -0.7911068201065063 38.580395579338074 -31.43347531557083 32.34514206647873 23.682875633239746 54.44555997848511 -19.670276194810867 5.386005789041519 -9.930463805794716 11.848036050796509
-0.12584022618830204 -0.4703797996044159 -0.6977746160700917 -56.5253609418869 -12.741233110427856 27.27446347475052 -1.5195565670728683 15.957358628511429 4.900240637362003 3.1919393688440323 -10.736220180988312 2.1657000482082367 -4.6733663231134415 13.834871649742126 -2.2744763642549515 8.445320650935173 -24.248988032341003 -2.6107385382056236 1.4331937953829765 0.179576575756073 -0.03386573866009712 -2.058697510510683 -1.1213833093643188 -0.571340024471283 0.8543915301561356 0.056190937757492065 -0.264416690915823 53.695281744003296 35.01764953136444 10.274746119976044 -24.64459240436554 -34.591701328754425 74.4372707605362 -11.803168058395386 -23.004327714443207 -13.454942107200623 1.2599556986242533 -0.4246121272444725 -1.506420448422432 -0.8337864652276039 -0.4766039829701185 -1.7323864996433258 -1.2492955103516579 -1.0943369194865227 -0.9803782403469086 8.25122594833374 6.801586523652077 0.7552333641797304 -0.9362384676933289 -0.31516844406723976 0.8618125319480896 3.712630569934845 -1.2559450417757034 -0.5580697953701019 0.5527355521917343 -0.3789592534303665 -0.20372852683067322 13.0926413834095 -1.7106344550848007 -0.7533282414078712 0.7467404007911682 1.0969224013388157 0.19459112081676722 1.3955607265233994 -1.8596787750720978 -1.0792384296655655 -0.03340624272823334 -1.8351875245571136 -1.382497362792492 -57.40426182746887 28.61342489719391 -27.75700092315674 23.896950781345367 -28.459812104701996 -63.77796292304993 6.889848634600639 -11.501424908638 5.308612994849682 0.36901630461215973 1.5833240747451782 -0.8742622565478086 -0.21349478513002396 -1.0855302214622498 -0.13447925448417664 -0.5487363785505295 -0.17308194190263748 -1.1222201585769653 -5.364906527101994 5.067704021930695 1.3424728531390429 -0.43408602476119995 1.713622435927391 0.49624957144260406 -2.9830194264650345 0.8634215220808983 1.0650931298732758 1.6967681050300598 -2.5985076650977135 -0.8443060051649809 -11.598370671272278 -0.1278320699930191 1.6555888205766678 0.4792470484972 -0.22404420655220747 -1.7744951695203781 -2.6456136256456375 -2.6815247163176537 -1.194901317358017 0.9728999901562929 -0.7939676474779844 0.2878439426422119 -28.238293826580048 -33.41495454311371 -23.989942967891693 -18.5572949051857 62.320842146873474 18.683339953422546 -5.35218246281147 -14.228495210409164 -6.072242930531502 1.0547029227018356 -1.0061489045619965 -0.7328009605407715 48.52407395839691 -40.35780966281891 40.80663979053497 29.699754416942596 66.23387396335602 -28.028054237365723 6.42568901181221 -8.826854825019836 12.223784029483795
